<?xml version="1.0" encoding="UTF-8" standalone="no"?>
<svg
   xmlns:dc="http://purl.org/dc/elements/1.1/"
   xmlns:cc="http://creativecommons.org/ns#"
   xmlns:rdf="http://www.w3.org/1999/02/22-rdf-syntax-ns#"
   xmlns:svg="http://www.w3.org/2000/svg"
   xmlns="http://www.w3.org/2000/svg"
   xmlns:sodipodi="http://sodipodi.sourceforge.net/DTD/sodipodi-0.dtd"
   xmlns:inkscape="http://www.inkscape.org/namespaces/inkscape"
   viewBox="0 0 17 16"
   version="1.1"
   class="si-glyph si-glyph-crown"
   id="svg2"
   inkscape:version="0.48.2 r9819"
   width="100%"
   height="100%"
   sodipodi:docname="si-glyph-crown.svg">
  <metadata
     id="metadata24">
    <rdf:RDF>
      <cc:Work
         rdf:about="">
        <dc:format>image/svg+xml</dc:format>
        <dc:type
           rdf:resource="http://purl.org/dc/dcmitype/StillImage" />
      </cc:Work>
    </rdf:RDF>
  </metadata>
  <sodipodi:namedview
     pagecolor="#ffffff"
     bordercolor="#666666"
     borderopacity="1"
     objecttolerance="10"
     gridtolerance="10"
     guidetolerance="10"
     inkscape:pageopacity="0"
     inkscape:pageshadow="2"
     inkscape:window-width="1439"
     inkscape:window-height="920"
     id="namedview22"
     showgrid="false"
     inkscape:zoom="14.75"
     inkscape:cx="-4.4830508"
     inkscape:cy="8"
     inkscape:window-x="0"
     inkscape:window-y="0"
     inkscape:window-maximized="0"
     inkscape:current-layer="g8" />
  <title
     id="title4">1065</title>
  <defs
     id="defs6" />
  <g
     stroke="none"
     stroke-width="1"
     fill="none"
     fill-rule="evenodd"
     id="g8">
    <g
       transform="translate(1.000000, 0.000000)"
       fill="#434343"
       id="g10"
       style="fill:#ffe70f;fill-opacity:0.94117647">
      <path
         d="M12.971,15.23 C12.971,15.653 12.554,15.998 12.039,15.998 L3.951,15.998 C3.436,15.998 3.019,15.653 3.019,15.23 L3.019,14.78 C3.019,14.358 3.436,14.013 3.951,14.013 L12.039,14.013 C12.554,14.013 12.971,14.358 12.971,14.78 L12.971,15.23 L12.971,15.23 Z"
         class="si-glyph-fill"
         id="path12"
         style="fill:#ffe70f;fill-opacity:0.94117647" />
      <path
         d="M12.465,12.979 L3.547,12.979 L1.421,5.365 L2.562,4.656 L5.573,8.907 L7.345,3.042 L8.763,3.042 L10.357,9.262 L13.545,4.656 L14.591,5.365 L12.465,12.979 Z"
         class="si-glyph-fill"
         id="path14"
         style="fill:#ffe70f;fill-opacity:0.94117647" />
      <circle
         cx="14.968"
         cy="2.968"
         r="0.968"
         class="si-glyph-fill"
         id="circle16"
         d="m 15.936,2.9679999 c 0,0.5346117 -0.433388,0.968 -0.968,0.968 -0.534611,0 -0.968,-0.4333883 -0.968,-0.968 0,-0.5346116 0.433389,-0.968 0.968,-0.968 0.534612,0 0.968,0.4333884 0.968,0.968 z"
         style="fill:#ffe70f;fill-opacity:0.94117647" />
      <circle
         cx="7.964"
         cy="0.964"
         r="0.964"
         class="si-glyph-fill"
         id="circle18"
         d="m 8.9280002,0.96399999 c 0,0.53240251 -0.4315975,0.96400001 -0.964,0.96400001 -0.5324025,0 -0.964,-0.4315975 -0.964,-0.96400001 C 7.0000002,0.4315975 7.4315977,0 7.9640002,0 c 0.5324025,0 0.964,0.4315975 0.964,0.96399999 z"
         style="fill:#ffe70f;fill-opacity:0.94117647" />
      <ellipse
         cx="0.983"
         cy="2.974"
         rx="0.983"
         ry="0.974"
         class="si-glyph-fill"
         id="ellipse20"
         d="M 1.966,2.974 C 1.966,3.5119253 1.5258959,3.948 0.98299998,3.948 0.44010408,3.948 0,3.5119253 0,2.974 0,2.4360746 0.44010408,2 0.98299998,2 1.5258959,2 1.966,2.4360746 1.966,2.974 z"
         style="fill:#ffe70f;fill-opacity:0.94117647" />
    </g>
  </g>
</svg>
